<?xml version="1.0" encoding="UTF-8" standalone="no"?> <svg id="Capa_1" enable-background="new 0 0 512 512" height="512" viewBox="0 0 512 512" width="512" xmlns="http://www.w3.org/2000/svg"><g><g><g><path d="m446 170h-40c-8.284 0-15-6.716-15-15v-80c0-8.284 6.716-15 15-15h40c19.299 0 35 15.701 35 35v40c0 19.299-15.701 35-35 35z" fill="#f9f4c8"/></g></g><path d="m446 311h-40c-8.284 0-15-6.716-15-15v-80c0-8.284 6.716-15 15-15h40c19.299 0 35 15.701 35 35v40c0 19.299-15.701 35-35 35z" fill="#ffd845"/><g><g><path d="m446 452h-40c-8.284 0-15-6.716-15-15v-80c0-8.284 6.716-15 15-15h40c19.299 0 35 15.701 35 35v40c0 19.299-15.701 35-35 35z" fill="#ff3838"/></g></g><g><g><path d="m126 512h-60c-19.299 0-35-15.701-35-35v-442c0-19.299 15.701-35 35-35h60c8.284 0 15 6.716 15 15v482c0 8.284-6.716 15-15 15z" fill="#556e82"/></g></g><g><path d="m386 0h-260v512h260c19.299 0 35-15.701 35-35v-442c0-19.299-15.701-35-35-35z" fill="#93c6ec"/></g><path d="m421 477v-442c0-19.299-15.701-35-35-35h-130v512h130c19.299 0 35-15.701 35-35z" fill="#6ba7ff"/><path d="m346 392h-160c-8.284 0-15-6.716-15-15s6.716-15 15-15h160c8.284 0 15 6.716 15 15s-6.716 15-15 15z" fill="#556e82"/><g><path d="m346 452h-160c-8.284 0-15-6.716-15-15s6.716-15 15-15h160c8.284 0 15 6.716 15 15s-6.716 15-15 15z" fill="#556e82"/></g><g fill="#3c4655"><path d="m346 362h-90v30h90c8.284 0 15-6.716 15-15s-6.716-15-15-15z"/><path d="m346 422h-90v30h90c8.284 0 15-6.716 15-15s-6.716-15-15-15z"/></g><g><g><path d="m346.003 231.001c-4.432 0-8.74-1.967-11.645-5.542l-20.858-25.672-20.586 25.336c-3.669 4.516-9.571 6.807-15.242 5.505-6.909-1.586-11.672-7.697-11.672-14.628v-216h95v215.567c0 5.816-3.133 11.314-8.352 13.881-2.135 1.05-4.406 1.553-6.645 1.553z" fill="#ff3838"/></g></g></g></svg>