<?xml version="1.0" encoding="utf-8"?><svg version="1.1" id="Layer_1" xmlns="http://www.w3.org/2000/svg" xmlns:xlink="http://www.w3.org/1999/xlink" x="0px" y="0px" viewBox="0 0 85.31 122.88" style="enable-background:new 0 0 85.31 122.88" xml:space="preserve"><g><path d="M71.62,52.44c5.09,0.78,8.61,3.13,10.57,6.26c1.96,3.13,3.13,8.61,3.13,15.65c0,14.09-4.3,25.83-12.91,34.83 c-8.61,9-19.57,13.7-32.87,13.7c-5.09,0-10.17-0.78-15.26-2.74c-5.09-1.96-9-4.7-12.52-7.83c-3.91-3.52-7.04-7.83-9-11.74 C1.17,96.27,0,91.96,0,87.66c0-4.7,1.17-8.61,3.13-11.35c1.96-2.74,5.48-4.3,9.78-5.48c-0.78-1.96-1.57-3.52-1.96-5.09 c-0.39-1.17-0.78-2.35-0.78-3.13c0-2.35,1.17-5.09,3.91-7.83c2.74-2.74,5.09-3.91,7.44-3.91c1.17,0,1.96,0,3.13,0.39 c1.17,0.39,2.35,0.78,3.91,1.96c-3.52-11.74-7.04-21.52-9-28.18c-1.96-6.65-2.74-10.96-2.74-13.7c0-3.52,0.78-6.26,2.74-8.22 C21.13,1.17,23.87,0,27,0c5.09,0,11.74,11.74,19.96,35.61c1.56,3.91,2.35,7.04,3.13,9.39c0.78-1.57,1.56-4.31,2.74-7.44 C61.05,14.09,68.09,2.35,73.57,2.35c2.74,0,5.09,0.78,7.04,2.74c1.57,1.96,2.74,4.7,2.74,7.83c0,2.35-0.78,7.04-2.74,13.7 C78.27,33.26,75.53,41.87,71.62,52.44L71.62,52.44L71.62,52.44z M11.35,86.88c0.78,0.78,1.96,2.35,3.13,4.3 c3.52,5.09,7.04,7.83,10.17,7.83c1.17,0,1.96-0.39,2.74-1.17s1.17-1.56,1.17-1.96c0-0.78-0.39-2.35-1.57-4.3 c-1.17-1.96-2.74-4.3-4.7-6.65c-2.35-2.74-4.3-5.09-5.48-6.26c-1.57-1.17-2.74-1.96-3.52-1.96c-1.96,0-3.91,1.17-5.48,3.13 s-2.35,4.7-2.35,7.44c0,2.35,0.39,4.7,1.57,7.83c1.17,2.74,2.74,5.87,5.09,8.61c3.52,3.91,7.44,7.44,12.52,9.78 c5.09,2.35,10.17,3.52,16.44,3.52c10.96,0,19.96-3.91,27.39-12.13c7.44-8.22,10.96-18.39,10.96-30.91c0-3.91-0.39-6.65-0.78-9 c-0.39-2.35-1.56-3.91-2.74-4.7c-2.35-1.96-6.65-3.52-13.31-5.09c-6.65-1.57-13.7-2.35-20.74-2.35c-1.96,0-3.52,0.39-4.3,1.17 s-1.17,1.96-1.17,3.52c0,3.91,1.96,6.65,6.26,8.22c4.31,1.57,11.35,2.74,20.74,2.74h3.52c0.78,0,1.57,0.39,1.96,0.78 c0.39,0.78,0.78,1.57,0.78,2.74c-0.78,0.78-2.74,1.96-5.87,3.13c-3.13,1.17-5.09,2.35-6.65,3.52c-3.52,2.35-6.26,5.48-8.22,9 c-1.96,3.52-3.13,6.65-3.13,9.78c0,1.96,0.39,3.91,1.17,6.65c0.78,2.74,1.17,4.3,1.17,4.7v1.57c-2.35,0-4.3-1.57-5.87-4.3 c-1.57-2.74-1.96-6.26-1.96-10.96v-0.78c-0.39,0.39-0.78,0.78-1.17,0.78s-0.78,0.39-1.57,0.39H36c-0.39,0-0.78-0.39-1.57-0.39 c0,0.78,0.39,1.18,0.39,1.96v1.57c0,1.96-0.78,3.91-2.35,5.48c-1.57,1.56-3.52,2.35-5.87,2.35c-3.52,0-7.04-1.56-10.96-5.09 c-3.52-3.52-5.48-6.65-5.48-10.17c0-0.78,0-1.17,0.39-1.57C10.57,87.66,10.96,87.27,11.35,86.88L11.35,86.88L11.35,86.88z M36.79,88.83c0.78,0,1.96-0.39,2.74-1.18c0.78-0.78,1.17-1.96,1.17-2.74c0-1.17-0.78-3.52-2.35-7.44s-3.52-7.83-5.87-11.35 c-1.57-2.74-3.52-5.09-5.09-6.26c-1.56-1.56-3.13-1.96-4.7-1.96c-1.17,0-2.35,0.78-3.91,2.35c-1.56,1.56-1.96,2.74-1.96,4.3 c0,1.17,0.78,3.52,1.96,6.26c1.57,2.74,3.13,5.48,5.48,8.61c2.35,3.13,4.7,5.87,7.04,7.83C33.66,88.05,35.22,88.83,36.79,88.83 L36.79,88.83L36.79,88.83z M45,48.13l-9.39-26.22c-2.35-6.65-3.91-11.35-5.48-13.31c-1.17-1.96-2.35-3.13-3.91-3.13 c-1.17,0-1.96,0.39-2.74,1.17c-1.17,1.17-1.57,2.35-1.57,3.91c0,2.74,1.17,7.04,3.13,13.31c1.96,6.26,5.09,14.87,9,25.05 c0.39-0.78,0.78-1.17,1.57-1.17c0.78-0.39,1.57-0.39,2.35-0.39h1.96C41.09,47.74,42.66,47.74,45,48.13L45,48.13z M54.4,73.57 c-2.35,0-4.7-0.39-7.04-0.78c-2.35-0.39-4.3-0.78-6.26-1.57c0.78,1.96,1.57,3.52,2.35,5.48c0.78,1.96,1.18,3.52,1.57,5.48 c1.17-1.57,2.74-3.13,4.3-4.7C51.27,75.92,52.83,74.75,54.4,73.57L54.4,73.57L54.4,73.57z M65.74,50.87 c3.91-10.17,6.65-18.78,9-25.44c1.96-6.65,3.13-10.57,3.13-12.13s-0.39-2.74-1.18-3.91c-0.78-0.78-1.56-1.17-2.74-1.17 c-1.57,0-3.13,1.17-4.7,3.91c-1.56,2.74-3.52,6.65-5.48,12.52l-8.61,24.26L65.74,50.87L65.74,50.87L65.74,50.87z"/></g></svg>